<svg width="96" height="96" viewBox="0 0 96 96" fill="none" xmlns="http://www.w3.org/2000/svg">
<path d="M87.2988 1.77398C88.8014 1.81058 90.009 1.89019 90.8477 1.96246C91.2671 1.9986 91.5949 2.03355 91.8213 2.05914C91.9343 2.07191 92.0225 2.08267 92.084 2.09039C92.1146 2.09423 92.1389 2.09689 92.1562 2.09918L92.1836 2.10308H92.1865C92.1865 2.10308 92.1825 2.13849 91.9541 3.7984L92.1865 2.10308L93.6895 2.31011L93.8965 3.81207L91.915 4.08453C93.7956 3.82564 93.8915 3.81382 93.8965 3.81402L93.8975 3.81597C93.8975 3.81597 93.8981 3.82019 93.8984 3.82281C93.8992 3.82814 93.8992 3.83557 93.9004 3.84429C93.9027 3.86172 93.9063 3.88588 93.9102 3.91656C93.9179 3.97811 93.9286 4.06612 93.9414 4.17925C93.967 4.40563 94.001 4.73354 94.0371 5.15289C94.1094 5.99143 94.19 7.19859 94.2266 8.70074C94.2997 11.7032 94.1981 15.8997 93.499 20.6949C92.1039 30.2641 88.3049 42.3753 78.6035 52.0767C74.2422 56.4381 69.6323 60.0284 65.0254 62.7818C67.0618 68.7312 65.7114 75.586 60.9619 80.3355L47.7773 93.5191L46.3633 92.105C40.117 85.8585 39.7425 75.9636 45.2402 69.2798C40.6261 69.3927 36.4145 68.2901 33.0957 65.732L23.8018 75.0269L20.9736 72.1978L30.2666 62.9039C27.7304 59.613 26.6261 55.4439 26.7178 50.8755L26.4561 51.1382C23.1015 54.4928 19.0369 55.8012 14.96 55.3599C10.9427 54.925 7.07277 52.8145 3.89453 49.6363L2.48047 48.2222L15.6641 35.0386C20.4136 30.2893 27.2684 28.938 33.2178 30.9742C35.9712 26.3673 39.5625 21.7584 43.9238 17.397C53.6254 7.6955 65.7364 3.89657 75.3057 2.50152C80.1007 1.80249 84.2964 1.70085 87.2988 1.77398ZM61.4512 64.7496C58.5445 66.2158 55.6657 67.3408 52.876 68.1031C52.4661 68.2151 52.0561 68.317 51.6484 68.4136L49.1924 70.8707C44.5909 75.4722 44.1554 82.6619 47.8857 87.7535L58.1338 77.5064C61.5867 74.0533 62.6932 69.1403 61.4512 64.7496ZM61.0781 10.5816C56.0956 12.7446 51.1424 15.8347 46.752 20.2252C38.8801 28.097 33.8117 36.6517 31.7549 44.1793C29.9514 50.7801 30.5179 56.2931 33.1309 60.0396L42.208 50.9634L45.0361 53.7925L35.959 62.8687C39.7056 65.4824 45.2195 66.0485 51.8213 64.2447C59.3488 62.1879 67.9035 57.1196 75.7754 49.2476C80.1656 44.8573 83.2541 39.9038 85.417 34.9214L61.0781 10.5816ZM31.249 34.5484C26.8585 33.307 21.9461 34.4141 18.4932 37.8668L8.20898 48.15C10.5086 50.0191 12.999 51.1235 15.3906 51.3824C18.248 51.6916 21.118 50.8189 23.627 48.3101L27.585 44.3511C27.6816 43.9436 27.7845 43.5344 27.8965 43.1246C28.6588 40.3348 29.7828 37.4552 31.249 34.5484ZM51.8857 30.6675C55.5986 26.9547 61.6191 26.9548 65.332 30.6675C69.0449 34.3804 69.0449 40.4009 65.332 44.1138C61.6191 47.8267 55.5986 47.8267 51.8857 44.1138C48.173 40.4009 48.1729 34.3804 51.8857 30.6675ZM62.5039 33.4966C60.3531 31.3458 56.8657 31.3458 54.7148 33.4966C52.5641 35.6475 52.564 39.1349 54.7148 41.2857C56.8657 43.4362 60.3532 43.4364 62.5039 41.2857C64.6546 39.135 64.6544 35.6475 62.5039 33.4966ZM87.2012 5.77203C84.3736 5.70317 80.4091 5.79968 75.8828 6.45953C72.5225 6.9494 68.8737 7.74679 65.1602 9.00738L86.9922 30.8394C88.2527 27.126 89.0511 23.4779 89.541 20.1177C90.2009 15.5911 90.2964 11.6261 90.2275 8.7984C90.199 7.62478 90.1412 6.64971 90.085 5.91461C89.3499 5.85837 88.3745 5.80061 87.2012 5.77203Z" fill="url(#paint0_linear_6316_5320)"/>
<defs>
<linearGradient id="paint0_linear_6316_5320" x1="31.6788" y1="32.3423" x2="47.4423" y2="49.0016" gradientUnits="userSpaceOnUse">
<stop stop-color="#FF5C00"/>
<stop offset="1" stop-color="#1E6C9E"/>
</linearGradient>
</defs>
</svg>
