<svg width="96" height="96" viewBox="0 0 96 96" fill="none" xmlns="http://www.w3.org/2000/svg">
<g clip-path="url(#clip0_6476_17402)">
<mask id="mask0_6476_17402" style="mask-type:luminance" maskUnits="userSpaceOnUse" x="0" y="0" width="96" height="96">
<path d="M96 7.62939e-06H7.62939e-06V96H96V7.62939e-06Z" fill="white"/>
</mask>
<g mask="url(#mask0_6476_17402)">
<path fill-rule="evenodd" clip-rule="evenodd" d="M67.2302 90.7297C61.2747 96.6852 51.6191 96.6852 45.6638 90.7297L8.03097 53.0969C6.25856 51.3244 5.45571 48.8019 5.87765 46.3313L11.365 14.2102L1.39035 4.23557C0.609538 3.45451 0.609396 2.18842 1.39035 1.40745C2.17132 0.626476 3.43741 0.626631 4.21847 1.40745L14.1931 11.3821L46.3142 5.89475C48.785 5.47254 51.3075 6.2752 53.0798 8.0471L90.7126 45.6809C96.6681 51.6364 96.6681 61.2918 90.7126 67.2473L67.2302 90.7297ZM48.4919 87.9016C52.8851 92.2949 60.0087 92.295 64.4021 87.9016L87.8845 64.4192C92.2779 60.0258 92.2778 52.9024 87.8845 48.509L50.2517 10.8762C49.3967 10.0215 48.1796 9.63448 46.988 9.83811L17.6599 14.8489L25.1277 22.3166C29.3741 19.3591 35.1976 19.653 39.1277 23.2033L39.5495 23.6037C43.9572 28.0118 43.9571 35.1584 39.5495 39.5666C35.1413 43.9748 27.9939 43.9749 23.5857 39.5666C19.6605 35.641 19.2346 29.5467 22.3005 25.1457L14.8318 17.677L9.82004 47.0051C9.61653 48.1969 10.0042 49.4137 10.8591 50.2688L48.4919 87.9016ZM26.4138 36.7385C29.2599 39.5846 33.8743 39.5846 36.7204 36.7385C39.5664 33.8924 39.5664 29.278 36.7204 26.4319C34.365 24.077 30.8 23.6731 28.0271 25.216L32.5837 29.7727C33.3648 30.5537 33.3648 31.8198 32.5837 32.6008C31.8027 33.3818 30.5366 33.3819 29.7556 32.6008L25.1989 28.0442C23.6552 30.8172 24.0585 34.3828 26.4138 36.7385Z" fill="url(#paint0_linear_6476_17402)"/>
</g>
</g>
<defs>
<linearGradient id="paint0_linear_6476_17402" x1="30.8329" y1="32.28" x2="47.0447" y2="49.4128" gradientUnits="userSpaceOnUse">
<stop stop-color="#FF5C00"/>
<stop offset="1" stop-color="#1E6C9E"/>
</linearGradient>
<clipPath id="clip0_6476_17402">
<rect width="96" height="96" fill="white"/>
</clipPath>
</defs>
</svg>
